<?xml version="1.0" encoding="utf-8"?>
<!-- Generator: Adobe Illustrator 26.1.0, SVG Export Plug-In . SVG Version: 6.00 Build 0)  -->
<svg version="1.1" id="Layer_1" xmlns="http://www.w3.org/2000/svg" xmlns:xlink="http://www.w3.org/1999/xlink" x="0px" y="0px"
	 viewBox="0 0 1200 1200" style="enable-background:new 0 0 1200 1200;" xml:space="preserve">
<style type="text/css">
	.st0{fill:url(#SVGID_1_);}
	.st1{fill:url(#SVGID_00000043444505034493560270000015671289519791717022_);}
	.st2{fill:url(#SVGID_00000098192495756466823580000007910116142235825032_);}
	.st3{fill:#262262;}
	.st4{fill:#EF7943;}
	.st5{fill:#FFFFFF;}
	.st6{fill:#5B6670;}
	.st7{fill:#323B68;}
	.st8{fill:#21B0B7;}
	.st9{fill:#114999;}
	.st10{fill:#06262D;}
	.st11{fill:url(#SVGID_00000007421401825040132620000003018852721095758993_);}
	.st12{fill:#3D4543;}
	.st13{fill:url(#SVGID_00000127036371752475572910000003586231274947210395_);}
	.st14{fill:#E01073;}
	.st15{fill:url(#SVGID_00000150089316578371490710000002644962668904678798_);}
	.st16{fill:url(#SVGID_00000105413433408854655110000014851346176292871563_);}
	.st17{fill:url(#SVGID_00000088826569347013454740000001156675797015635587_);}
</style>
<linearGradient id="SVGID_1_" gradientUnits="userSpaceOnUse" x1="593.7822" y1="115.9433" x2="593.7822" y2="737.1954">
	<stop  offset="0" style="stop-color:#E58077"/>
	<stop  offset="0.0872" style="stop-color:#E57A77"/>
	<stop  offset="0.2073" style="stop-color:#E46876"/>
	<stop  offset="0.3465" style="stop-color:#E34B75"/>
	<stop  offset="0.499" style="stop-color:#E12374"/>
	<stop  offset="0.5612" style="stop-color:#E01073"/>
	<stop  offset="1" style="stop-color:#BB1085"/>
</linearGradient>
<path class="st0" d="M788.14,408.85l-35.17-17.93v35.97l35.17,17.93V408.85z M785.89,441.15l-30.67-15.63v-30.92l30.67,15.63V441.15
	z M511.68,226.32l-34.42,17.54v-35.13l34.42-17.54V226.32z M511.68,266.49l-34.42,17.54V248.9l34.42-17.54V266.49z M511.68,306.65
	l-34.42,17.54v-35.13l34.42-17.54V306.65z M550.59,326.98l-34.42,17.54v-35.13l34.42-17.54V326.98z M511.68,346.82l-34.42,17.54
	v-35.13l34.42-17.54V346.82z M511.68,186.15l-34.42,17.54v-30.29l34.42-17.34V186.15z M472.76,205.99l-34.42,17.54v-30.51
	l34.42-17.34V205.99z M472.76,286.33l-34.42,17.54v-35.13l34.42-17.54V286.33z M472.76,326.49l-34.42,17.54V308.9l34.42-17.54
	V326.49z M472.76,366.66l-34.42,17.54v-35.13l34.42-17.54V366.66z M550.59,286.82l-34.42,17.54v-35.13l34.42-17.54V286.82z
	 M472.76,246.16l-34.42,17.54v-35.13l34.42-17.54V246.16z M511.68,464.93l-34.42,17.14v-32.34l34.42-17.54V464.93z M590.09,186.35
	l-35,17.84v-35.13l35-17.84V186.35z M317.09,325.51l-33,16.82V307.2l33-16.82V325.51z M632.47,249.16l-35.75-18.22v35.97
	l35.75,18.22V249.16z M630.22,281.46l-31.25-15.93v-30.92l31.25,15.93V281.46z M590.09,146.18l-35,17.84v-29.83l35-17.64V146.18z
	 M632.47,208.99l-35.75-18.22v35.97l35.75,18.22V208.99z M630.22,241.3l-31.25-15.93v-30.92l31.25,15.93V241.3z M472.76,406.83
	l-34.42,17.54v-35.13l34.42-17.54V406.83z M317.09,365.68l-33,16.82v-35.13l33-16.82V365.68z M550.59,246.65l-34.42,17.54v-35.13
	l34.42-17.54V246.65z M632.47,168.83l-35.75-18.22v35.97l35.75,18.22V168.83z M630.22,201.13l-31.25-15.93v-30.92l31.25,15.93
	V201.13z M550.59,206.48l-34.42,17.54v-35.13l34.42-17.54V206.48z M590.09,226.51l-35,17.84v-35.13l35-17.84V226.51z M590.09,306.85
	l-35,17.84v-35.13l35-17.84V306.85z M590.09,266.68l-35,17.84v-35.13l35-17.84V266.68z M550.59,166.32l-34.42,17.54V153.8
	l34.42-17.34V166.32z M394.93,523.08l-34.42,17.14v-30.98l34.42-17.54V523.08z M394.93,486.67l-34.42,17.54v-35.13l34.42-17.54
	V486.67z M394.93,366.17l-34.42,17.54v-35.13l34.42-17.54V366.17z M356.01,305.67l-34.42,17.54v-35.13l34.42-17.54V305.67z
	 M394.93,406.34l-34.42,17.54v-35.13l34.42-17.54V406.34z M394.93,446.5l-34.42,17.54v-35.13l34.42-17.54V446.5z M356.01,265.51
	l-34.42,17.54v-31.2l34.42-17.34V265.51z M356.01,506.51l-34.42,17.54v-35.13l34.42-17.54V506.51z M356.01,542.47l-34.42,17.14
	v-30.52l34.42-17.54V542.47z M356.01,345.84l-34.42,17.54v-35.13l34.42-17.54V345.84z M356.01,466.34l-34.42,17.54v-35.13
	l34.42-17.54V466.34z M356.01,426.17l-34.42,17.54v-35.13l34.42-17.54V426.17z M356.01,386.01l-34.42,17.54v-35.13l34.42-17.54
	V386.01z M433.84,426.66l-34.42,17.54v-35.13l34.42-17.54V426.66z M433.84,306.16l-34.42,17.54v-35.13l34.42-17.54V306.16z
	 M433.84,266l-34.42,17.54v-35.13l34.42-17.54V266z M433.84,346.33l-34.42,17.54v-35.13l34.42-17.54V346.33z M394.93,326
	l-34.42,17.54v-35.13l34.42-17.54V326z M433.84,225.83l-34.42,17.54v-30.74l34.42-17.34V225.83z M433.84,386.5l-34.42,17.54v-35.13
	l34.42-17.54V386.5z M472.76,484.31l-34.42,17.14v-31.89l34.42-17.54V484.31z M394.93,285.84l-34.42,17.54v-35.13l34.42-17.54
	V285.84z M394.93,245.67l-34.42,17.54v-30.97l34.42-17.34V245.67z M433.84,466.83l-34.42,17.54v-35.13l34.42-17.54V466.83z
	 M433.84,503.7l-34.42,17.14v-31.43l34.42-17.54V503.7z M472.76,446.99l-34.42,17.54V429.4l34.42-17.54V446.99z M788.14,368.68
	l-35.17-17.93v35.97l35.17,17.93V368.68z M785.89,400.98l-30.67-15.63v-30.92l30.67,15.63V400.98z M827.05,348.35l-35.17-17.93
	v35.97l35.17,17.93V348.35z M824.8,380.65l-30.67-15.63V334.1l30.67,15.63V380.65z M827.05,308.18l-35.17-17.93v35.97l35.17,17.93
	V308.18z M824.8,340.49l-30.67-15.63v-30.92l30.67,15.63V340.49z M827.05,388.52l-35.17-17.93v35.97l35.17,17.93V388.52z
	 M824.8,420.82l-30.67-15.63v-30.92l30.67,15.63V420.82z M869.72,526.57l33.75,17.2V507.8l-33.75-17.2V526.57z M871.97,494.27
	l29.25,14.91v30.92l-29.25-14.91V494.27z M827.05,268.02l-35.17-17.93v35.97l35.17,17.93V268.02z M824.8,300.32l-30.67-15.63v-30.92
	l30.67,15.63V300.32z M869.72,486.41l33.75,17.2v-35.97l-33.75-17.2V486.41z M871.97,454.1l29.25,14.91v30.92l-29.25-14.91V454.1z
	 M788.14,212.4l-35.17-17.72v31.38l35.17,17.93V212.4z M785.89,240.31l-30.67-15.63v-26.35l30.67,15.45V240.31z M827.05,509.02
	l-35.17-17.93v32.22l35.17,17.52V509.02z M824.8,537.2l-30.67-15.28v-27.16l30.67,15.63V537.2z M550.59,412.35v33.19l-34.42,17.14
	v-32.79L550.59,412.35z M827.05,428.68l-35.17-17.93v35.97l35.17,17.93V428.68z M824.8,460.99l-30.67-15.63v-30.92l30.67,15.63
	V460.99z M827.05,232.01l-35.17-17.72v31.61l35.17,17.93V232.01z M824.8,260.15l-30.67-15.63v-26.58l30.67,15.45V260.15z
	 M869.72,562.08l33.75,16.81v-30.92l-33.75-17.2V562.08z M871.97,534.44l29.25,14.91v25.91l-29.25-14.57V534.44z M710.67,474.04
	h-0.02l-0.35-0.16V449.5l-35.17-17.93v28.66l-3.75,1.88v-32.45l-14.86-7.57l2.13-3.11l12.73,6.49v-25.05l3.75-5.47v32.44
	l35.17,17.93v-35.97l-33.37-17.01l2.13-3.11l31.24,15.92v-35.97l-12.96-6.61l2.13-3.11l10.83,5.52v-21.32l2-2.92l0.15-52.99
	l-36.9-18.14l-4.17,2.13V269l-35.17-17.93v35.97l2.56,1.31l-6.31,3.22v-2.24l-35.75-18.22v35.97l2.66,1.36l-9.29,4.73v-1.29
	l-35,17.84V331l-4.5,2.29v-1.28l-34.42,17.54v1.28l-4.5,2.29v-1.28l-34.42,17.54v35.13l15.61-7.95v5.03l-15.61,7.96v35.13
	l34.42-17.54v-12.81l4.5,2.23v8.29l8.25-4.2l2.65,1.31l70.23-34.26l0.54,0.28l-7.75,11.18v-6.95l-35,17.84v33.25l6.74-3.36
	l-7.36,10.62L286.34,583.81l311,153.38l304.78-152.38l-191.49-95.85L710.67,474.04z M677.39,395.08l30.67,15.63v30.92l-30.67-15.63
	V395.08z M677.39,435.25l30.67,15.63v21.99l-30.67-13.72V435.25z M677.37,465.8l24.74,11.06l-126.3,62.98l24.13-35.2L677.37,465.8z
	 M661.68,466.97L661.68,466.97L661.68,466.97L661.68,466.97z M660.79,467.42L607,494.34l27.93-40.75l-0.36,0.72L660.79,467.42z
	 M664.19,465.72l-27.97-14l3.03-4.43l30.96,15.42L664.19,465.72z M669.14,431.04v28.62l-28.6-14.24l14.71-21.45L669.14,431.04z
	 M669.14,421.8l-9.2-4.69l9.2-13.41V421.8z M708.05,370.55v30.92l-27.71-14.12l15.71-22.92L708.05,370.55z M708.05,361.31l-7.3-3.72
	l7.3-10.65V361.31z M638.47,285.67v-30.92l30.67,15.63v2.51l-27.88,14.21L638.47,285.67z M598.97,305.7v-30.92l31.25,15.93v2.01
	l-28.36,14.45L598.97,305.7z M524.05,413.61l-25.4-13.07l0.09-32.74l25.41,13L524.05,413.61z M502.43,362.86l173.16-86.48
	l26.94,13.24l-174.94,86.11L502.43,362.86z M530.16,413.71l0.09-32.53l176.09-86.67v44.36L557.59,555.64l148.57-74.02v35.94
	l-176.6,86.97v-46.65l148.71-216.41L530.16,413.71z M609.59,381.73l50.65-24.72L524.48,555.48l-28.77-9.44L609.59,381.73z
	 M523.4,604.76l-29.58-12.6l0.11-40.33l28.76,9.44L523.4,604.76z M710.9,521.03l0.45-0.22l0.08-28.04l183.88,92.04L597.34,733.79
	L293.22,583.8l259.14-128.78l-63.32,91.38l-0.14,0.2l-0.4,49.01l38.1,16.21L710.9,521.03z M827.05,468.85l-35.17-17.93v35.97
	l35.17,17.93V468.85z M824.8,501.15l-30.67-15.63V454.6l30.67,15.63V501.15z M865.97,328.02L830.8,310.1v35.97L865.97,364V328.02z
	 M863.72,360.32l-30.67-15.63v-30.92l30.67,15.63V360.32z M869.72,446.24l33.75,17.2v-35.97l-33.75-17.2V446.24z M871.97,413.94
	l29.25,14.91v30.92l-29.25-14.91V413.94z M869.72,365.91l33.75,17.2v-35.97l-33.75-17.2V365.91z M871.97,333.61l29.25,14.91v30.92
	l-29.25-14.91V333.61z M869.72,325.74l33.75,17.2v-35.97l-33.75-17.2V325.74z M871.97,293.44l29.25,14.91v30.92l-29.25-14.91V293.44
	z M865.97,251.62L830.8,233.9v31.83l35.17,17.93V251.62z M863.72,279.99l-30.67-15.63v-26.8l30.67,15.45V279.99z M865.97,287.86
	l-35.17-17.93v35.97l35.17,17.93V287.86z M863.72,320.16l-30.67-15.63V273.6l30.67,15.63V320.16z M865.97,368.19l-35.17-17.93v35.97
	l35.17,17.93V368.19z M863.72,400.49l-30.67-15.63v-30.92l30.67,15.63V400.49z M865.97,528.86l-35.17-17.93v31.77l35.17,17.52
	V528.86z M863.72,556.58l-30.67-15.28v-26.7l30.67,15.63V556.58z M865.97,488.69l-35.17-17.93v35.97l35.17,17.93V488.69z
	 M863.72,520.99l-30.67-15.63v-30.92l30.67,15.63V520.99z M869.72,406.07l33.75,17.2V387.3l-33.75-17.2V406.07z M871.97,373.77
	l29.25,14.91v30.92l-29.25-14.91V373.77z M865.97,448.52L830.8,430.6v35.97l35.17,17.93V448.52z M863.72,480.82l-30.67-15.63v-30.92
	l30.67,15.63V480.82z M865.97,408.36l-35.17-17.93v35.97l35.17,17.93V408.36z M863.72,440.66l-30.67-15.63V394.1l30.67,15.63V440.66
	z M749.22,348.84l-35.17-17.93v35.97l35.17,17.93V348.84z M746.97,381.14l-30.67-15.63v-30.92l30.67,15.63V381.14z M671.39,153.57
	l-35.17-17.72v30.7l35.17,17.93V153.57z M669.14,180.8l-30.67-15.63V139.5l30.67,15.45V180.8z M749.22,429.17l-35.17-17.93v35.97
	l35.17,17.93V429.17z M746.97,461.48l-30.67-15.63v-30.92l30.67,15.63V461.48z M710.3,208.5l-35.17-17.93v35.97l35.17,17.93V208.5z
	 M708.05,240.8l-30.67-15.63v-30.92l30.67,15.63V240.8z M710.3,248.67l-35.17-17.93v35.97l35.17,17.93V248.67z M708.05,280.97
	l-30.67-15.63v-30.92l30.67,15.63V280.97z M788.14,248.18l-35.17-17.93v35.97l35.17,17.93V248.18z M785.89,280.48l-30.67-15.63
	v-30.92l30.67,15.63V280.48z M749.22,469.34l-35.17-17.93v33.13l35.17,17.52V469.34z M746.97,498.43l-30.67-15.28v-28.07
	l30.67,15.63V498.43z M317.09,561.85l-33,16.44V548.2l33-16.82V561.85z M317.09,446.01l-33,16.82V427.7l33-16.82V446.01z
	 M317.09,526.34l-33,16.82v-35.13l33-16.82V526.34z M671.39,228.83l-35.17-17.93v35.97l35.17,17.93V228.83z M669.14,261.13
	l-30.67-15.63v-30.92l30.67,15.63V261.13z M632.47,133.96l-35.75-18.02v30.47l35.75,18.22V133.96z M630.22,160.96l-31.25-15.93
	V119.6l31.25,15.75V160.96z M317.09,486.18l-33,16.82v-35.13l33-16.82V486.18z M671.39,188.67l-35.17-17.93v35.97l35.17,17.93
	V188.67z M669.14,220.97l-30.67-15.63v-30.92l30.67,15.63V220.97z M710.3,173.18l-35.17-17.72v30.92l35.17,17.93V173.18z
	 M708.05,200.64l-30.67-15.63v-25.89l30.67,15.45V200.64z M317.09,285.34l-33,16.82v-31.41l33-16.63V285.34z M788.14,489.18
	l-35.17-17.93v32.68l35.17,17.52V489.18z M785.89,517.81l-30.67-15.28v-27.61l30.67,15.63V517.81z M869.72,253.51v32.06l33.75,17.2
	v-32.26L869.72,253.51z M901.22,299.11l-29.25-14.91v-27.03l29.25,14.74V299.11z M788.14,449.01l-35.17-17.93v35.97l35.17,17.93
	V449.01z M785.89,481.31l-30.67-15.63v-30.92l30.67,15.63V481.31z M788.14,328.51l-35.17-17.93v35.97l35.17,17.93V328.51z
	 M785.89,360.81l-30.67-15.63v-30.92l30.67,15.63V360.81z M788.14,288.35l-35.17-17.93v35.97l35.17,17.93V288.35z M785.89,320.65
	l-30.67-15.63v-30.92l30.67,15.63V320.65z M749.22,192.79l-35.17-17.72v31.15l35.17,17.93V192.79z M746.97,220.48l-30.67-15.63
	v-26.12l30.67,15.45V220.48z M317.09,405.84l-33,16.82v-35.13l33-16.82V405.84z M749.22,308.67l-35.17-17.93v35.97l35.17,17.93
	V308.67z M746.97,340.98l-30.67-15.63v-30.92l30.67,15.63V340.98z M749.22,268.51l-35.17-17.93v35.97l35.17,17.93V268.51z
	 M746.97,300.81l-30.67-15.63v-30.92l30.67,15.63V300.81z M749.22,389.01l-35.17-17.93v35.97l35.17,17.93V389.01z M746.97,421.31
	l-30.67-15.63v-30.92l30.67,15.63V421.31z M749.22,228.34l-35.17-17.93v35.97l35.17,17.93V228.34z M746.97,260.64l-30.67-15.63
	v-30.92l30.67,15.63V260.64z"/>
<g>
	<path class="st14" d="M242.88,1030.19l138.04-174.62H246.37v-47.82h204.67V853L311.2,1030.19h140.2v47.64H242.88V1030.19z"/>
	<path class="st14" d="M566.05,956.35c9.72-1.22,16.67-2.75,20.86-4.58c7.51-3.18,11.26-8.12,11.26-14.84
		c0-8.18-2.88-13.83-8.64-16.95c-5.76-3.12-14.21-4.67-25.35-4.67c-12.5,0-21.36,3.05-26.56,9.16c-3.72,4.52-6.19,10.63-7.43,18.32
		H479.8c1.1-17.47,6.01-31.82,14.72-43.06c13.86-17.59,37.66-26.39,71.4-26.39c21.96,0,41.46,4.34,58.52,13.01
		c17.05,8.67,25.58,25.04,25.58,49.11v91.61c0,6.35,0.12,14.05,0.37,23.09c0.37,6.84,1.4,11.48,3.12,13.93
		c1.71,2.44,4.27,4.46,7.7,6.05v7.7h-56.8c-1.59-4.03-2.69-7.82-3.3-11.36c-0.61-3.54-1.1-7.57-1.47-12.09
		c-7.25,7.82-15.61,14.48-25.06,19.97c-11.3,6.47-24.08,9.71-38.34,9.71c-18.19,0-33.2-5.16-45.06-15.48
		c-11.86-10.32-17.79-24.95-17.79-43.88c0-24.55,9.54-42.33,28.61-53.32c10.46-5.98,25.84-10.26,46.15-12.83L566.05,956.35z
		 M597.98,980.71c-3.34,2.08-6.72,3.76-10.12,5.04c-3.41,1.28-8.08,2.47-14.02,3.57l-11.89,2.2c-11.14,1.96-19.14,4.34-24,7.15
		c-8.22,4.76-12.34,12.16-12.34,22.17c0,8.92,2.51,15.36,7.54,19.33c5.02,3.97,11.13,5.96,18.33,5.96c11.41,0,21.92-3.3,31.54-9.89
		c9.61-6.6,14.6-18.63,14.98-36.1V980.71z"/>
	<path class="st14" d="M806.59,873.43c0.67,0.06,2.17,0.15,4.49,0.27v53.5c-3.3-0.37-6.23-0.61-8.79-0.73
		c-2.57-0.12-4.64-0.18-6.23-0.18c-21.01,0-35.12,6.84-42.33,20.52c-4.03,7.7-6.05,19.55-6.05,35.55v95.46H695.1V878.11h49.84v34.81
		c8.06-13.31,15.08-22.41,21.07-27.3c9.77-8.18,22.47-12.28,38.11-12.28C805.09,873.34,805.92,873.37,806.59,873.43z"/>
	<path class="st14" d="M952.63,873.43c0.67,0.06,2.17,0.15,4.49,0.27v53.5c-3.3-0.37-6.23-0.61-8.79-0.73
		c-2.57-0.12-4.64-0.18-6.23-0.18c-21.01,0-35.12,6.84-42.33,20.52c-4.03,7.7-6.05,19.55-6.05,35.55v95.46h-52.59V878.11h49.84
		v34.81c8.06-13.31,15.08-22.41,21.07-27.3c9.77-8.18,22.47-12.28,38.11-12.28C951.13,873.34,951.95,873.37,952.63,873.43z"/>
</g>
</svg>
