<svg xmlns="http://www.w3.org/2000/svg" xmlns:svg="http://www.w3.org/2000/svg" id="svg911" width="404.285" height="113.651" version="1.1" viewBox="0 0 106.967 30.07"><metadata id="metadata908"/><g id="layer1" transform="translate(-13.04029,8.3207843)"><g id="g1040" transform="translate(-162.11936,7.6695847)" style="stroke-linecap:butt;stroke-linejoin:round;stroke-miterlimit:100000"><path id="path926" d="m 200.86847,-0.955309 v -15.03506 h 8.37832 8.37832 v 2.18066 2.18066 h -6.31243 -6.31243 v 4.24654 4.24655 h 6.31243 6.31243 v 2.18065 2.18066 h -6.31243 -6.31243 v 4.24655 4.24654 h 6.31243 6.31243 v 2.18066 2.18066 h -8.37832 -8.37832 z" style="fill:#20a684;fill-opacity:1;stroke-width:.22954293;stroke-linecap:butt;stroke-linejoin:round;stroke-miterlimit:100000"/><path id="path926-7" d="m 243.56347,-0.955319 v -15.03505 h 6.31243 6.31243 v 2.18066 2.18065 h 2.18066 2.18065 v 10.67374 10.67375 h -2.18065 -2.18066 v 2.18066 2.18067 h -6.31243 -6.31243 z m 12.62486,0 v -10.67374 h -4.24655 -4.24654 v 10.67374 10.67375 h 4.24654 4.24655 z" style="fill:#6ccd5a;fill-opacity:1;stroke-width:.22954294;stroke-linecap:butt;stroke-linejoin:round;stroke-miterlimit:100000"/><path id="path926-5" d="m 183.88228,11.899101 v -2.18066 h -2.18065 -2.18066 v -4.24654 -4.24655 h -2.18066 -2.18066 v -8.60786 -8.60786 h 2.18066 2.18066 v 8.60786 8.60786 h 2.18066 2.18065 v 2.06589 2.06588 h 2.06589 2.06589 v -2.06588 -2.06589 h 2.06588 2.06589 v -8.60786 -8.60786 h 2.18066 2.18066 v 8.60786 8.60786 h -2.18066 -2.18066 v 4.24655 4.24654 h -2.06589 -2.06588 v 2.18066 2.18066 h -2.06589 -2.06589 z" style="fill:#26818e;fill-opacity:1;stroke-width:.22954294;stroke-linecap:butt;stroke-linejoin:round;stroke-miterlimit:100000"/><path id="path926-7-3" d="m 221.98643,-0.955319 v -15.03505 h 8.60787 8.60785 v 6.42719 6.42721 h -2.29543 -2.29543 v 2.18065 2.18066 h 2.29543 2.29543 v 6.4272 6.42722 h -2.29543 -2.29543 v -4.36133 -4.36132 h -2.06588 -2.06589 v -2.06588 -2.06589 h -2.06589 -2.06588 v 6.4272 6.42722 h -2.18066 -2.18066 z m 12.62486,-6.4272 v -4.24654 h -4.13177 -4.13177 v 4.24654 4.24655 h 4.13177 4.13177 z" style="fill:#3dbc74;fill-opacity:1;stroke-width:.22954296;stroke-linecap:butt;stroke-linejoin:round;stroke-miterlimit:100000"/><path id="path926-7-5" d="m 264.91096,-0.955319 v -15.03505 h 8.60786 8.60786 v 2.18066 2.18065 h -6.42721 -6.4272 v 4.24654 4.24656 h 6.4272 6.42721 v 2.18065 2.18066 h -6.42721 -6.4272 v 4.24655 4.24654 h 6.4272 6.42721 v 2.18066 2.18067 h -8.60786 -8.60786 z" style="fill:#a0da39;fill-opacity:1;stroke-width:.22954296;stroke-linecap:butt;stroke-linejoin:round;stroke-miterlimit:100000"/></g></g></svg>
