<svg xmlns="http://www.w3.org/2000/svg" xmlns:svgjs="http://svgjs.com/svgjs" xmlns:xlink="http://www.w3.org/1999/xlink" width="600" height="600" version="1.1"><svg xmlns="http://www.w3.org/2000/svg" xmlns:xlink="http://www.w3.org/1999/xlink" id="SvgjsSvg1000" x="0" y="0" version="1.1" viewBox="0 0 600 600" style="enable-background:new 0 0 600 600" xml:space="preserve"><style type="text/css">.st0{fill:#216c89}.st1{fill:#4993aa}.st2{fill:#0f4565}.st3{fill:#6be8e8}.st4{fill:#9deef4}.st5{fill:#4acfdd}.st6{fill:#e38017}.st7{fill:#16afb5}</style><g><g><polygon points="266.62 546.18 356.1 454.54 356.1 271.27 266.62 362.9" class="st0"/><polygon points="356.1 271.45 114.48 271.45 25 362.9 266.62 362.9" class="st1"/><rect width="241.62" height="183.27" x="25" y="362.9" class="st2"/></g><g><polygon points="266.62 328.73 356.1 237.1 356.1 53.82 266.62 145.46" class="st3"/><polygon points="356.1 54 114.48 54 25 145.46 266.62 145.46" class="st4"/><rect width="241.62" height="183.27" x="25" y="145.46" class="st5"/></g><polygon points="467.47 452.33 374.48 546.18 374.48 362.9 467.47 269.05" class="st6"/><polygon points="575 452.33 482.01 546.18 482.01 362.9 575 269.05" class="st7"/></g></svg><style>@media (prefers-color-scheme:light){:root{filter:none}}</style></svg>
