<svg width="1080" height="1080" viewBox="0 0 1080 1080" fill="none" xmlns="http://www.w3.org/2000/svg">
<path d="M369.437 635.874L457.739 545.443V364.582L369.437 455.012V635.874Z" fill="#216C89"/>
<path d="M457.74 364.761H219.304L131 455.013H369.437L457.74 364.761Z" fill="#4993AA"/>
<path d="M369.436 635.874H131V455.013H369.436V635.874Z" fill="#0F4565"/>
<path d="M369.437 421.292L457.739 330.861V150L369.437 240.431V421.292Z" fill="#6BE8E8"/>
<path d="M457.74 150.179H219.304L131 240.431H369.437L457.74 150.179Z" fill="#9DEEF4"/>
<path d="M369.436 421.292H131V240.43H369.436V421.292Z" fill="#4ACFDD"/>
<path d="M567.642 543.258L475.878 635.874V455.012L567.642 362.396V543.258Z" fill="#E38017"/>
<path d="M673.759 543.258L581.995 635.874V455.012L673.759 362.396V543.258Z" fill="#16AFB5"/>
<path d="M165.707 700.075C185.84 734.523 195.82 750.581 200.677 759.863H200.999C207.283 749.128 220.055 728.82 237.571 700.075H269.541L217.9 777.812L269.773 862.997H235.679C218.193 832.303 205.333 810.977 199.631 800.649H199.311C194.744 809.407 181.011 834.077 163.437 862.997H131L181.944 782.379L132.368 700.075H165.707Z" fill="white"/>
<path d="M383.843 785.172H359.201C321.728 785.172 314.686 800.388 314.686 814.47C314.686 829.425 323.734 841.877 343.432 841.877C374.184 841.877 383.843 821.19 383.843 788.517V785.172ZM412.235 825.672C412.235 836.873 413.226 853.833 414.652 862.997H387.858C386.753 857.498 385.618 848.48 385.473 838.878C379.13 854.648 362.897 865.878 336.914 865.878C297.028 865.878 284.43 839.373 284.43 816.39C284.43 790.933 301.13 764.313 359.113 764.313H382.942V749.272C382.942 734.23 378.607 719.362 352.626 719.362C329.844 719.362 322.337 730.012 319.836 746.828H290.832C293.13 719.858 308.812 696.874 353.439 696.874C388.352 696.874 412.235 710.49 412.235 748.224V825.672Z" fill="white"/>
<path d="M457.709 755.351C457.709 729.226 457.534 708.744 457.069 700.075H486.218C486.829 707.639 486.976 718.026 486.976 732.252C494.19 713.312 511.444 697.514 539.024 697.166V727.915C502.977 728.875 487.441 748.456 487.441 784.038V862.998H457.709V755.351Z" fill="white"/>
<path d="M564.279 755.351C564.279 729.226 564.104 708.744 563.639 700.075H592.788C593.399 707.639 593.546 718.026 593.546 732.252C600.76 713.312 618.012 697.514 645.594 697.166V727.915C609.547 728.875 594.011 748.456 594.011 784.038V862.998H564.279V755.351Z" fill="white"/>
<path d="M756.674 785.172H732.031C694.558 785.172 687.517 800.388 687.517 814.47C687.517 829.425 696.565 841.877 716.262 841.877C747.014 841.877 756.674 821.19 756.674 788.517V785.172ZM785.066 825.672C785.066 836.873 786.057 853.833 787.482 862.997H760.689C759.583 857.498 758.449 848.48 758.303 838.878C751.961 854.648 735.727 865.878 709.745 865.878C669.858 865.878 657.261 839.373 657.261 816.39C657.261 790.933 673.961 764.313 731.943 764.313H755.773V749.272C755.773 734.23 751.438 719.362 725.457 719.362C702.674 719.362 695.167 730.012 692.666 746.828H663.662C665.961 719.858 681.642 696.874 726.27 696.874C761.182 696.874 785.066 710.49 785.066 748.224V825.672Z" fill="white"/>
<path d="M838.658 700.075C862.69 777.115 875.491 816.392 879.303 835.797H879.623C884.452 817.468 898.97 766.324 919.54 700.075H949.97L893.296 870.212C876.567 920.281 861.818 929.767 833.278 929.767C829.903 929.767 822.834 929.301 818.788 928.515V903.352C822.571 903.992 828.883 904.312 832.927 904.312C851.346 904.312 857.628 889.968 864.67 868.525L806.744 700.075H838.658Z" fill="white"/>
</svg>
